<mxfile host="app.diagrams.net" modified="2021-08-02T13:51:10.261Z" agent="5.0 (Windows NT 10.0; Win64; x64) AppleWebKit/537.36 (KHTML, like Gecko) Chrome/92.0.4515.107 Safari/537.36" etag="EVhNmJBo_W2mFg4IrlMR" version="14.9.3" type="github">
  <diagram id="ImzwwgEOewGevcnxlFmK" name="Page-1">
    <mxGraphModel dx="2249" dy="1931" grid="1" gridSize="10" guides="1" tooltips="1" connect="1" arrows="1" fold="1" page="1" pageScale="1" pageWidth="827" pageHeight="1169" math="0" shadow="0">
      <root>
        <mxCell id="0" />
        <mxCell id="1" parent="0" />
        <mxCell id="H5YRQsvZ94Y67DmzZ0p0-33" value="" style="rounded=1;whiteSpace=wrap;html=1;fillColor=#f5f5f5;fontColor=#333333;strokeColor=none;" vertex="1" parent="1">
          <mxGeometry x="-70" y="-10" width="940" height="780" as="geometry" />
        </mxCell>
        <mxCell id="H5YRQsvZ94Y67DmzZ0p0-7" value="" style="rounded=0;whiteSpace=wrap;html=1;fillColor=#ffe6cc;strokeColor=none;" vertex="1" parent="1">
          <mxGeometry x="-10" y="140" width="290" height="420" as="geometry" />
        </mxCell>
        <mxCell id="H5YRQsvZ94Y67DmzZ0p0-1" value="AWS EC2&lt;br&gt;서버 컴퓨터 역할" style="outlineConnect=0;dashed=0;verticalLabelPosition=bottom;verticalAlign=top;align=center;html=1;shape=mxgraph.aws3.ec2;fillColor=#F58534;gradientColor=none;" vertex="1" parent="1">
          <mxGeometry x="90.89" y="80" width="76.5" height="93" as="geometry" />
        </mxCell>
        <mxCell id="H5YRQsvZ94Y67DmzZ0p0-5" style="edgeStyle=orthogonalEdgeStyle;rounded=0;orthogonalLoop=1;jettySize=auto;html=1;entryX=1;entryY=0.5;entryDx=0;entryDy=0;entryPerimeter=0;endArrow=none;endFill=0;" edge="1" parent="1" source="H5YRQsvZ94Y67DmzZ0p0-2" target="H5YRQsvZ94Y67DmzZ0p0-1">
          <mxGeometry relative="1" as="geometry" />
        </mxCell>
        <mxCell id="H5YRQsvZ94Y67DmzZ0p0-2" value="AWS Route 53&lt;br&gt;도메인 역할" style="outlineConnect=0;dashed=0;verticalLabelPosition=bottom;verticalAlign=top;align=center;html=1;shape=mxgraph.aws3.route_53;fillColor=#F58536;gradientColor=none;" vertex="1" parent="1">
          <mxGeometry x="310" y="83.75" width="70.5" height="85.5" as="geometry" />
        </mxCell>
        <mxCell id="H5YRQsvZ94Y67DmzZ0p0-6" value="외부에서 접근" style="edgeStyle=orthogonalEdgeStyle;rounded=0;orthogonalLoop=1;jettySize=auto;html=1;entryX=1;entryY=0.5;entryDx=0;entryDy=0;entryPerimeter=0;endArrow=classicThin;endFill=1;" edge="1" parent="1" source="H5YRQsvZ94Y67DmzZ0p0-3" target="H5YRQsvZ94Y67DmzZ0p0-2">
          <mxGeometry relative="1" as="geometry" />
        </mxCell>
        <mxCell id="H5YRQsvZ94Y67DmzZ0p0-3" value="Internet" style="aspect=fixed;perimeter=ellipsePerimeter;html=1;align=center;shadow=0;dashed=0;spacingTop=3;image;image=img/lib/active_directory/internet_cloud.svg;" vertex="1" parent="1">
          <mxGeometry x="550" y="90.38" width="114.68" height="72.25" as="geometry" />
        </mxCell>
        <mxCell id="H5YRQsvZ94Y67DmzZ0p0-21" value="프론트엔드에서 호출한&lt;br&gt;API 요청에 의해 호출" style="edgeStyle=orthogonalEdgeStyle;rounded=0;orthogonalLoop=1;jettySize=auto;html=1;exitX=1;exitY=0.25;exitDx=0;exitDy=0;entryX=0;entryY=0.25;entryDx=0;entryDy=0;entryPerimeter=0;startArrow=none;startFill=0;endArrow=classicThin;endFill=1;" edge="1" parent="1" source="H5YRQsvZ94Y67DmzZ0p0-8" target="H5YRQsvZ94Y67DmzZ0p0-20">
          <mxGeometry x="0.0123" y="23" relative="1" as="geometry">
            <mxPoint as="offset" />
          </mxGeometry>
        </mxCell>
        <mxCell id="H5YRQsvZ94Y67DmzZ0p0-8" value="Backend application&#xa;API 구현 및 비즈니스 로직 담당" style="shape=image;verticalLabelPosition=bottom;labelBackgroundColor=#ffffff;verticalAlign=top;aspect=fixed;imageAspect=0;image=https://s3-ap-northeast-2.amazonaws.com/opentutorials-user-file/course/3718/10723.png;" vertex="1" parent="1">
          <mxGeometry x="52.02" y="330" width="154.24" height="70" as="geometry" />
        </mxCell>
        <mxCell id="H5YRQsvZ94Y67DmzZ0p0-12" style="edgeStyle=orthogonalEdgeStyle;rounded=0;orthogonalLoop=1;jettySize=auto;html=1;endArrow=none;endFill=0;startArrow=classicThin;startFill=1;" edge="1" parent="1" source="H5YRQsvZ94Y67DmzZ0p0-11" target="H5YRQsvZ94Y67DmzZ0p0-8">
          <mxGeometry relative="1" as="geometry" />
        </mxCell>
        <mxCell id="H5YRQsvZ94Y67DmzZ0p0-11" value="Server" style="shape=image;verticalLabelPosition=bottom;labelBackgroundColor=#ffffff;verticalAlign=top;aspect=fixed;imageAspect=0;image=https://www.nginx.com/wp-content/uploads/2018/08/NGINX-logo-rgb-large.png;" vertex="1" parent="1">
          <mxGeometry x="40" y="210" width="178.28" height="60" as="geometry" />
        </mxCell>
        <mxCell id="H5YRQsvZ94Y67DmzZ0p0-19" style="edgeStyle=orthogonalEdgeStyle;rounded=0;orthogonalLoop=1;jettySize=auto;html=1;entryX=0;entryY=0.5;entryDx=0;entryDy=0;startArrow=classicThin;startFill=1;endArrow=none;endFill=0;exitX=0;exitY=0.5;exitDx=0;exitDy=0;" edge="1" parent="1" source="H5YRQsvZ94Y67DmzZ0p0-17" target="H5YRQsvZ94Y67DmzZ0p0-8">
          <mxGeometry relative="1" as="geometry" />
        </mxCell>
        <mxCell id="H5YRQsvZ94Y67DmzZ0p0-17" value="Database" style="shape=image;verticalLabelPosition=bottom;labelBackgroundColor=#ffffff;verticalAlign=top;aspect=fixed;imageAspect=0;image=https://4.bp.blogspot.com/-JD-JX90QOXQ/VeQvWk6UowI/AAAAAAAABfc/deSP-ZCMc6c/w0/postgresql-logo.png;" vertex="1" parent="1">
          <mxGeometry x="30" y="420" width="90" height="100" as="geometry" />
        </mxCell>
        <mxCell id="H5YRQsvZ94Y67DmzZ0p0-24" value="연산된 결과 반환" style="edgeStyle=orthogonalEdgeStyle;rounded=0;orthogonalLoop=1;jettySize=auto;html=1;entryX=1;entryY=0.75;entryDx=0;entryDy=0;startArrow=none;startFill=0;endArrow=classicThin;endFill=1;exitX=0;exitY=0.75;exitDx=0;exitDy=0;exitPerimeter=0;" edge="1" parent="1" source="H5YRQsvZ94Y67DmzZ0p0-20" target="H5YRQsvZ94Y67DmzZ0p0-8">
          <mxGeometry relative="1" as="geometry">
            <Array as="points">
              <mxPoint x="430" y="329" />
              <mxPoint x="430" y="383" />
            </Array>
          </mxGeometry>
        </mxCell>
        <mxCell id="H5YRQsvZ94Y67DmzZ0p0-20" value="AWS Lambda&lt;br&gt;감성 분석 연산" style="points=[[0,0,0],[0.25,0,0],[0.5,0,0],[0.75,0,0],[1,0,0],[0,1,0],[0.25,1,0],[0.5,1,0],[0.75,1,0],[1,1,0],[0,0.25,0],[0,0.5,0],[0,0.75,0],[1,0.25,0],[1,0.5,0],[1,0.75,0]];outlineConnect=0;fontColor=#232F3E;gradientColor=#F78E04;gradientDirection=north;fillColor=#D05C17;strokeColor=#ffffff;dashed=0;verticalLabelPosition=bottom;verticalAlign=top;align=center;html=1;fontSize=12;fontStyle=0;aspect=fixed;shape=mxgraph.aws4.resourceIcon;resIcon=mxgraph.aws4.lambda;" vertex="1" parent="1">
          <mxGeometry x="490" y="270" width="78" height="78" as="geometry" />
        </mxCell>
        <mxCell id="H5YRQsvZ94Y67DmzZ0p0-27" value="AWS Lambda 함수는 Django application에서 요청한 명령(우리의 경우 감성 분석)을 수행한 후에 수행 결과를 django로 반환합니다.&lt;br&gt;&lt;br&gt;django application은 반환된 결과를 DB에 저장하고, 동시에 API를 요청한 대상에게 분석된 결과를 반환합니다." style="rounded=0;whiteSpace=wrap;html=1;dashed=1;" vertex="1" parent="1">
          <mxGeometry x="300" y="430" width="268" height="130" as="geometry" />
        </mxCell>
        <mxCell id="H5YRQsvZ94Y67DmzZ0p0-28" value="여기서 외부에서 아무나 접근하여 API를 사용하는 것을 방지하기 위해 프론트엔드에서 호스팅하는 도메인에 대해서만 동작하도록 설정해야 합니다." style="rounded=0;whiteSpace=wrap;html=1;dashed=1;" vertex="1" parent="1">
          <mxGeometry x="360" width="230" height="80" as="geometry" />
        </mxCell>
        <mxCell id="H5YRQsvZ94Y67DmzZ0p0-29" value="" style="aspect=fixed;html=1;points=[];align=center;image;fontSize=12;image=img/lib/mscae/Docker.svg;" vertex="1" parent="1">
          <mxGeometry x="80.36" y="530" width="97.56" height="80" as="geometry" />
        </mxCell>
        <mxCell id="H5YRQsvZ94Y67DmzZ0p0-30" value="위의 AWS EC2에서 설정한 환경 (nginx, django, postgreSQL 등)을 설정한 이미지를 생성할 것 입니다.&lt;br&gt;&lt;br&gt;이렇게 설정하면, 초기엔 번거로울 수 있으나 다른 EC2에서 세팅을 하거나 서버 어플리케이션을 여러개 세팅할 때 간편하며, 이 환경을 OS에 무관하게 테스트할 수 있다는 장점이 있습니다." style="rounded=0;whiteSpace=wrap;html=1;dashed=1;" vertex="1" parent="1">
          <mxGeometry x="-10" y="620" width="290" height="110" as="geometry" />
        </mxCell>
        <mxCell id="H5YRQsvZ94Y67DmzZ0p0-31" value="사실 이 곳에는 생략된 기능이 있습니다. AWS Lambda에 등록될 코드는 AWS codecommit에서 가져오도록 구현할 계획입니다.&lt;br&gt;&lt;br&gt;실제 코드는 github에 있지만, codecommit에서 미러링하여 가져오고 가져온 코드를 Lambda로 배포할 것 입니다.&lt;br&gt;&lt;br&gt;이 단계까지 포함하면 복잡하다고 생각하여 생략했습니다." style="rounded=0;whiteSpace=wrap;html=1;dashed=1;" vertex="1" parent="1">
          <mxGeometry x="600" y="220" width="230" height="180" as="geometry" />
        </mxCell>
        <mxCell id="H5YRQsvZ94Y67DmzZ0p0-34" value="이 구성을 pulumi를 통해 코드로 만들어서 관리할 것 입니다." style="rounded=1;whiteSpace=wrap;html=1;strokeColor=none;" vertex="1" parent="1">
          <mxGeometry x="610" y="630" width="184.68" height="60" as="geometry" />
        </mxCell>
      </root>
    </mxGraphModel>
  </diagram>
</mxfile>
